<?xml version="1.0" standalone="no"?>
<!DOCTYPE svg PUBLIC "-//W3C//DTD SVG 20010904//EN"
 "http://www.w3.org/TR/2001/REC-SVG-20010904/DTD/svg10.dtd">
<svg version="1.0" xmlns="http://www.w3.org/2000/svg"
 width="512.000000pt" height="512.000000pt" viewBox="0 0 512.000000 512.000000"
 preserveAspectRatio="xMidYMid meet">
<metadata>
Created by potrace 1.11, written by Peter Selinger 2001-2013
</metadata>
<g transform="translate(0.000000,512.000000) scale(0.100000,-0.100000)"
fill="#000000" stroke="none">
<path d="M2062 4978 c-8 -8 -12 -58 -12 -160 l0 -148 -148 0 c-102 0 -152 -4
-160 -12 -8 -8 -12 -58 -12 -160 l0 -148 -148 0 c-102 0 -152 -4 -160 -12 -13
-13 -18 -654 -4 -674 4 -7 64 -14 153 -19 l147 -7 6 -36 c3 -21 6 -148 6 -284
l0 -248 -148 0 c-102 0 -152 -4 -160 -12 -8 -8 -12 -58 -12 -160 l0 -148 -148
0 c-102 0 -152 -4 -160 -12 -8 -8 -12 -58 -12 -160 l0 -148 -148 0 c-102 0
-152 -4 -160 -12 -9 -9 -12 -204 -12 -817 0 -444 4 -811 8 -817 4 -7 64 -14
155 -19 81 -4 148 -10 148 -14 1 -3 4 -71 8 -151 l6 -145 95 -6 c52 -4 193 -7
313 -8 119 0 218 -4 218 -8 1 -5 4 -73 8 -153 l6 -145 95 -6 c124 -9 1336 -9
1460 0 l95 6 6 145 c4 80 7 148 8 153 0 4 99 8 219 8 119 1 260 4 312 8 l95 6
6 145 c4 80 7 148 8 151 0 4 67 10 149 14 90 5 150 12 154 19 4 6 8 373 8 817
0 613 -3 808 -12 817 -8 8 -58 12 -160 12 l-148 0 0 148 c0 102 -4 152 -12
160 -8 8 -58 12 -160 12 l-148 0 0 148 c0 102 -4 152 -12 160 -8 8 -58 12
-160 12 l-148 0 0 248 c0 136 3 263 6 284 l6 36 147 7 c89 5 149 12 153 19 14
20 9 661 -4 674 -8 8 -58 12 -160 12 l-148 0 0 148 c0 102 -4 152 -12 160 -8
8 -58 12 -160 12 l-148 0 0 148 c0 102 -4 152 -12 160 -17 17 -979 17 -996 0z
m978 -178 l0 -160 160 0 160 0 0 -160 0 -160 160 0 160 0 0 -320 0 -320 -160
0 -160 0 0 -320 0 -320 160 0 160 0 0 -160 0 -160 160 0 160 0 0 -160 0 -160
160 0 160 0 0 -800 0 -800 -160 0 -160 0 0 -160 0 -160 -320 0 -320 0 0 -160
0 -160 -800 0 -800 0 0 160 0 160 -320 0 -320 0 0 160 0 160 -160 0 -160 0 0
800 0 800 160 0 160 0 0 160 0 160 160 0 160 0 0 160 0 160 160 0 160 0 0 320
0 320 -160 0 -160 0 0 320 0 320 160 0 160 0 0 160 0 160 160 0 160 0 0 160 0
160 480 0 480 0 0 -160z"/>
<path d="M2080 4480 l0 -160 -160 0 -160 0 0 -320 0 -320 160 0 160 0 0 -320
0 -320 -160 0 -160 0 0 -160 0 -160 -160 0 -160 0 0 -160 0 -160 -160 0 -160
0 0 -800 0 -800 320 0 320 0 0 -160 0 -160 800 0 800 0 0 160 0 160 320 0 320
0 0 800 0 800 -160 0 -160 0 0 160 0 160 -160 0 -160 0 0 160 0 160 -160 0
-160 0 0 320 0 320 160 0 160 0 0 320 0 320 -160 0 -160 0 0 160 0 160 -480 0
-480 0 0 -160z m640 -1120 l0 -320 160 0 160 0 0 -160 0 -160 160 0 160 0 0
-160 0 -160 160 0 160 0 0 -640 0 -640 -160 0 -160 0 0 -160 0 -160 -800 0
-800 0 0 160 0 160 -160 0 -160 0 0 640 0 640 160 0 160 0 0 160 0 160 160 0
160 0 0 160 0 160 160 0 160 0 0 320 0 320 160 0 160 0 0 -320z"/>
<path d="M2400 2240 l0 -160 -160 0 -160 0 0 -320 0 -320 160 0 160 0 0 -160
0 -160 160 0 160 0 0 160 0 160 160 0 160 0 0 320 0 320 -160 0 -160 0 0 160
0 160 -160 0 -160 0 0 -160z"/>
</g>
</svg>
