
<!--?xml version="1.0" encoding="utf-8"?-->
<!-- Generator: Adobe Illustrator 16.0.0, SVG Export Plug-In . SVG Version: 6.00 Build 0)  -->

<svg version="1.1" id="Layer_1" xmlns="http://www.w3.org/2000/svg" xmlns:xlink="http://www.w3.org/1999/xlink" x="0px" y="0px" width="1000px" height="1000px" viewBox="0 0 1000 1000" enable-background="new 0 0 1000 1000" xml:space="preserve" style="">
<path stroke-width="20" stroke-linecap="round" stroke-linejoin="miter" fill="none" stroke="#FFFFFF" d="M416.333,592.333v109.334c0,0,11.332,226.507,282.666,226.507
	c271.334,0,280.334-199.174,280.334-335.841c0-136.667,0-448.667,0-448.667s-1-86.508-82.334-86.508H792.332l0.666,590.509
	c0,0,11.668,124-95.166,124s-105.5-80-112.834-106.667c-7.332-26.667-26.666-73.333-85.666-73.333
	C440.333,591.667,416.333,592.333,416.333,592.333z" class="LtXrQqMB_0"></path>
<path stroke-width="20" stroke-linecap="round" stroke-linejoin="miter" fill="none" stroke="#FFFFFF" d="M584,407V297.666c0,0-11.332-226.507-282.666-226.507S21,270.333,21,407
	c0,136.666,0,448.666,0,448.666s1.001,86.508,82.334,86.508H208l-0.666-590.508c0,0-11.668-124,95.166-124
	s105.501,80,112.834,106.667S442,407.666,501,407.666S584,407,584,407z" class="LtXrQqMB_1"></path>
<style>.LtXrQqMB_0{stroke-dasharray:2856 2858;stroke-dashoffset:2857;animation:LtXrQqMB_draw 3000ms ease 0ms forwards;}.LtXrQqMB_1{stroke-dasharray:2856 2858;stroke-dashoffset:2857;animation:LtXrQqMB_draw 3000ms ease 0ms forwards;}@keyframes LtXrQqMB_draw{100%{stroke-dashoffset:0;}}@keyframes LtXrQqMB_fade{0%{stroke-opacity:1;}94.44444444444444%{stroke-opacity:1;}100%{stroke-opacity:0;}}</style></svg>
